<?xml version="1.0" encoding="iso-8859-1"?>
<!-- Generator: Adobe Illustrator 19.0.0, SVG Export Plug-In . SVG Version: 6.00 Build 0)  -->
<svg version="1.1" id="Capa_1" xmlns="http://www.w3.org/2000/svg" xmlns:xlink="http://www.w3.org/1999/xlink" x="0px" y="0px"
	 viewBox="0 0 512 512" style="enable-background:new 0 0 512 512;" xml:space="preserve">
<path style="fill:#FE7A77;" d="M256,50L256,50c-11.046,0-20-8.954-20-20l0,0c0-11.046,8.954-20,20-20l0,0c11.046,0,20,8.954,20,20
	l0,0C276,41.046,267.046,50,256,50z"/>
<path style="fill:#DDE2FF;" d="M140.305,202.133h231.39c7.431,0,12.635-7.342,10.172-14.354l-24.037-68.438
	c-1.517-4.318-5.595-7.208-10.172-7.208H164.341c-4.577,0-8.655,2.89-10.172,7.208l-24.037,68.438
	C127.67,194.791,132.873,202.133,140.305,202.133z"/>
<polygon style="fill:#ECEEFF;" points="422.503,502 89.497,502 56.497,448 455.503,448 "/>
<path style="fill:#ACB8FF;" d="M56.085,448h399.83c12.185,0,21.247-11.267,18.634-23.168l-45.624-207.844
	c-1.921-8.752-9.674-14.988-18.634-14.988H101.709c-8.96,0-16.713,6.236-18.634,14.988L37.451,424.832
	C34.838,436.733,43.9,448,56.085,448z"/>
<g>
	<path style="fill:#FFFFFF;" d="M321.013,338.063H190.987c-3.963,0-6.91-3.664-6.06-7.534l14.837-67.592
		c0.625-2.846,3.146-4.874,6.06-4.874h100.352c2.914,0,5.435,2.028,6.06,4.874l14.837,67.592
		C327.923,334.399,324.976,338.063,321.013,338.063z"/>
	<polygon style="fill:#FFFFFF;" points="437.942,258.063 381.985,258.063 381.985,338.063 455.503,338.063 	"/>
	<polygon style="fill:#FFFFFF;" points="74.058,258.063 130.015,258.063 130.015,338.063 56.497,338.063 	"/>
</g>
<path d="M484.317,422.688l-45.624-207.846C435.787,201.606,423.842,192,410.291,192h-17.833c0.08-2.531-0.295-5.086-1.155-7.534
	l-24.037-68.438c-2.918-8.311-10.798-13.895-19.607-13.895H266V58.28c11.639-4.128,20-15.243,20-28.28c0-16.542-13.458-30-30-30
	s-30,13.458-30,30c0,13.036,8.361,24.152,20,28.28v43.854h-81.659c-8.809,0-16.688,5.584-19.607,13.895l-24.037,68.438
	c-0.86,2.448-1.235,5.004-1.155,7.534h-17.833c-13.551,0-25.496,9.606-28.402,22.843L27.683,422.688
	c-1.898,8.646,0.195,17.561,5.743,24.458c4.373,5.437,10.433,9.036,17.137,10.321l30.402,49.748
	c1.816,2.973,5.049,4.785,8.533,4.785h333.006c3.484,0,6.716-1.813,8.533-4.785l30.402-49.748
	c6.704-1.285,12.764-4.884,17.137-10.321C484.122,440.248,486.215,431.334,484.317,422.688z M256,20c5.514,0,10,4.486,10,10
	s-4.486,10-10,10c-5.514,0-10-4.486-10-10S250.486,20,256,20z M443.069,328.063h-51.085v-60h37.914L443.069,328.063z
	 M139.668,191.805c-0.234-0.33-0.14-0.598-0.1-0.712l24.037-68.438c0.109-0.312,0.406-0.521,0.737-0.521h183.317
	c0.331,0,0.627,0.21,0.737,0.521l24.037,68.438c0.04,0.114,0.134,0.382-0.1,0.712c-0.061,0.086-0.126,0.148-0.19,0.195H139.858
	C139.794,191.953,139.729,191.891,139.668,191.805z M101.709,212h308.582c4.23,0,7.959,2.999,8.867,7.131l6.351,28.933h-43.524
	c-5.523,0-10,4.478-10,10v80c0,5.522,4.477,10,10,10h65.475l17.322,78.913c0.593,2.699-0.061,5.481-1.792,7.635
	S458.679,438,455.915,438h-0.412H56.497h-0.412c-2.764,0-5.342-1.235-7.074-3.389s-2.385-4.936-1.792-7.635L52.262,404h329.723
	c5.523,0,10-4.478,10-10s-4.477-10-10-10H56.652l7.888-35.937h65.475c5.523,0,10-4.478,10-10v-80c0-5.522-4.477-10-10-10H86.492
	l6.351-28.932C93.75,214.999,97.479,212,101.709,212z M184,458v34h-42v-34H184z M204,458h42v34h-42V458z M266,458h42v34h-42V458z
	 M328,458h42v34h-42V458z M82.101,268.063h37.914v60H68.931L82.101,268.063z M74.328,458H122v34H95.105L74.328,458z M416.895,492
	H390v-34h47.672L416.895,492z"/>
<path d="M190.987,348.063h130.026c4.933,0,9.535-2.205,12.627-6.049s4.258-8.812,3.201-13.63l-14.838-67.593
	c-1.62-7.375-8.276-12.729-15.827-12.729H205.824c-7.551,0-14.208,5.354-15.828,12.729l-14.837,67.592
	c-1.058,4.818,0.109,9.786,3.201,13.63S186.054,348.063,190.987,348.063z M208.877,268.063h94.246l13.171,60H195.706
	L208.877,268.063z"/>
<path d="M420.99,404c2.63,0,5.2-1.07,7.06-2.931c1.87-1.859,2.94-4.439,2.94-7.069s-1.07-5.21-2.94-7.07
	c-1.86-1.86-4.43-2.93-7.06-2.93c-2.64,0-5.21,1.069-7.08,2.93c-1.86,1.86-2.93,4.44-2.93,7.07s1.07,5.21,2.93,7.069
	C415.78,402.93,418.35,404,420.99,404z"/>
<path d="M191,147.13c-2.63,0-5.21,1.07-7.07,2.93c-1.86,1.86-2.93,4.44-2.93,7.07c0,2.64,1.07,5.21,2.93,7.07
	c1.86,1.869,4.44,2.93,7.07,2.93s5.21-1.061,7.07-2.93c1.86-1.86,2.93-4.431,2.93-7.07c0-2.63-1.07-5.21-2.93-7.07
	C196.21,148.2,193.63,147.13,191,147.13z"/>
<path d="M256,147.13c-2.63,0-5.21,1.07-7.07,2.93c-1.86,1.86-2.93,4.44-2.93,7.07c0,2.64,1.07,5.21,2.93,7.07
	c1.86,1.869,4.44,2.93,7.07,2.93c2.63,0,5.21-1.061,7.07-2.93c1.86-1.86,2.93-4.44,2.93-7.07s-1.07-5.21-2.93-7.07
	C261.21,148.2,258.63,147.13,256,147.13z"/>
<path d="M321,147.13c-2.63,0-5.21,1.07-7.07,2.93c-1.86,1.86-2.93,4.44-2.93,7.07s1.07,5.21,2.93,7.07
	c1.86,1.869,4.44,2.93,7.07,2.93s5.21-1.061,7.07-2.93c1.86-1.86,2.93-4.431,2.93-7.07c0-2.63-1.07-5.21-2.93-7.07
	C326.21,148.2,323.63,147.13,321,147.13z"/>
<g>
</g>
<g>
</g>
<g>
</g>
<g>
</g>
<g>
</g>
<g>
</g>
<g>
</g>
<g>
</g>
<g>
</g>
<g>
</g>
<g>
</g>
<g>
</g>
<g>
</g>
<g>
</g>
<g>
</g>
</svg>
