<?xml version="1.0" encoding="iso-8859-1"?>
<!-- Generator: Adobe Illustrator 19.0.0, SVG Export Plug-In . SVG Version: 6.00 Build 0)  -->
<svg version="1.1" id="Capa_1" xmlns="http://www.w3.org/2000/svg" xmlns:xlink="http://www.w3.org/1999/xlink" x="0px" y="0px"
	 viewBox="0 0 512 512" style="enable-background:new 0 0 512 512;" xml:space="preserve">
<path style="fill:#FFEDD1;" d="M283.58,10.247L55.185,238.642c-60.247,60.247-60.247,157.926,0,218.173l0,0
	c60.247,60.247,157.926,60.247,218.172,0l228.479-228.479L502,10L283.58,10.247z"/>
<path style="fill:#FFD189;" d="M164.266,461.733c-62.96,0-114-51.04-114-114s51.04-114,114-114s114,51.04,114,114
	S227.227,461.733,164.266,461.733z"/>
<g>
	<path style="fill:#FFEDD1;" d="M169.047,437.333c0-19.771-16.028-35.8-35.8-35.8s-35.8,16.028-35.8,35.8
		c0,0.962,0.049,1.913,0.124,2.856c17.559,12.689,38.874,20.496,61.961,21.439C165.436,455.245,169.047,446.712,169.047,437.333z"/>
	<circle style="fill:#FFEDD1;" cx="204.1" cy="328.22" r="28.22"/>
</g>
<path d="M249.134,100.381c1.953,1.952,4.512,2.929,7.071,2.929s5.118-0.977,7.071-2.929l57.174-57.174
	c3.905-3.905,3.905-10.237,0-14.143c-3.906-3.904-10.236-3.904-14.143,0l-57.174,57.174
	C245.229,90.143,245.229,96.475,249.134,100.381z"/>
<path d="M209.646,202.905c1.953,1.952,4.512,2.929,7.071,2.929s5.118-0.977,7.071-2.929L409.614,17.079
	c3.905-3.905,3.905-10.237,0-14.143c-3.906-3.904-10.236-3.904-14.143,0L209.646,188.763C205.74,192.668,205.74,199,209.646,202.905
	z"/>
<path d="M373.241,138.759c1.953,1.952,4.512,2.929,7.071,2.929s5.118-0.977,7.071-2.929L509.071,17.071
	c3.905-3.905,3.905-10.237,0-14.143c-3.906-3.904-10.236-3.904-14.143,0L373.241,124.616
	C369.336,128.521,369.336,134.853,373.241,138.759z"/>
<path d="M360.149,165.99c1.86-1.86,2.931-4.44,2.931-7.07c0-2.64-1.07-5.21-2.931-7.07c-1.859-1.859-4.439-2.93-7.069-2.93
	s-5.21,1.07-7.07,2.93c-1.86,1.86-2.93,4.431-2.93,7.07c0,2.63,1.069,5.21,2.93,7.07c1.86,1.859,4.44,2.93,7.07,2.93
	S358.29,167.849,360.149,165.99z"/>
<path d="M501.84,218.34c-2.63,0-5.21,1.06-7.07,2.92c-1.87,1.87-2.93,4.44-2.93,7.07c0,2.64,1.06,5.21,2.93,7.08
	c1.86,1.859,4.431,2.93,7.07,2.93c2.63,0,5.21-1.07,7.07-2.93c1.859-1.87,2.92-4.44,2.92-7.08c0-2.63-1.061-5.2-2.92-7.07
	C507.04,219.399,504.47,218.34,501.84,218.34z"/>
<path d="M470.515,245.515L266.286,449.744c-56.25,56.251-147.778,56.252-204.03-0.001c-56.251-56.251-56.251-147.778,0-204.029
	L290.651,17.318c3.905-3.905,3.905-10.237,0-14.143c-3.906-3.904-10.236-3.904-14.143,0L48.113,231.571
	C17.087,262.598,0,303.85,0,347.728c0,43.879,17.088,85.131,48.114,116.158C79.141,494.913,120.393,512,164.271,512
	s85.131-17.087,116.157-48.113l204.229-204.229c3.905-3.905,3.905-10.237,0-14.143C480.751,241.61,474.421,241.61,470.515,245.515z"
	/>
<path d="M40.267,347.733c0,68.374,55.626,124,124,124s124-55.626,124-124s-55.626-124-124-124S40.267,279.359,40.267,347.733z
	 M154.249,451.249c-17.106-1.643-33.014-7.447-46.699-16.385c1.131-13.052,12.109-23.33,25.45-23.33
	c14.09,0,25.553,11.463,25.553,25.553C158.553,442.145,157.029,447.076,154.249,451.249z M268.267,347.733
	c0,53.255-40.239,97.282-91.908,103.293c1.439-4.476,2.194-9.178,2.194-13.94c0-25.118-20.435-45.553-45.553-45.553
	c-19.418,0-36.027,12.217-42.57,29.365c-18.635-18.804-30.163-44.662-30.163-73.165c0-30.168,12.916-57.372,33.503-76.386
	c9.035,0.808,16.144,8.411,16.144,17.653c0,9.778-7.955,17.733-17.733,17.733c-5.522,0-10,4.478-10,10s4.478,10,10,10
	c20.807,0,37.733-16.927,37.733-37.733c0-13.213-6.832-24.854-17.143-31.596c15.192-8.695,32.774-13.67,51.497-13.67
	C221.612,243.733,268.267,290.388,268.267,347.733z"/>
<path d="M204.104,366.447c21.076,0,38.224-17.147,38.224-38.224S225.181,290,204.104,290s-38.223,17.147-38.223,38.224
	S183.028,366.447,204.104,366.447z M204.104,310c10.049,0,18.224,8.175,18.224,18.224s-8.175,18.224-18.224,18.224
	c-10.048,0-18.223-8.175-18.223-18.224S194.057,310,204.104,310z"/>
<path d="M204.109,391.53c-2.64,0-5.22,1.069-7.08,2.93c-1.859,1.859-2.92,4.439-2.92,7.07c0,2.63,1.061,5.21,2.92,7.069
	c1.87,1.87,4.45,2.931,7.08,2.931c2.62,0,5.2-1.061,7.061-2.931c1.87-1.859,2.93-4.439,2.93-7.069c0-2.631-1.07-5.211-2.93-7.07
	C209.31,392.599,206.74,391.53,204.109,391.53z"/>
<path d="M115.09,357.069c-2.64,0-5.21,1.07-7.08,2.931c-1.86,1.859-2.93,4.439-2.93,7.069c0,2.631,1.069,5.211,2.93,7.07
	c1.87,1.87,4.44,2.93,7.08,2.93c2.63,0,5.2-1.06,7.06-2.93c1.87-1.859,2.94-4.43,2.94-7.07c0-2.63-1.07-5.21-2.94-7.069
	C120.29,358.14,117.72,357.069,115.09,357.069z"/>
<path d="M318.888,287.03c1.953,1.952,4.512,2.929,7.071,2.929s5.118-0.977,7.071-2.929l71-71c3.905-3.905,3.905-10.237,0-14.143
	c-3.906-3.904-10.236-3.904-14.143,0l-71,71C314.982,276.793,314.982,283.125,318.888,287.03z"/>
<path d="M493.997,97.779l-64.359,64.358c-3.905,3.905-3.905,10.237,0,14.143c1.953,1.952,4.512,2.929,7.071,2.929
	c2.559,0,5.118-0.977,7.071-2.929l64.359-64.358c3.905-3.905,3.905-10.237,0-14.143C504.234,93.876,497.904,93.875,493.997,97.779z"
	/>
<g>
</g>
<g>
</g>
<g>
</g>
<g>
</g>
<g>
</g>
<g>
</g>
<g>
</g>
<g>
</g>
<g>
</g>
<g>
</g>
<g>
</g>
<g>
</g>
<g>
</g>
<g>
</g>
<g>
</g>
</svg>
