<?xml version="1.0" encoding="iso-8859-1"?>
<!-- Generator: Adobe Illustrator 19.0.0, SVG Export Plug-In . SVG Version: 6.00 Build 0)  -->
<svg version="1.1" id="Capa_1" xmlns="http://www.w3.org/2000/svg" xmlns:xlink="http://www.w3.org/1999/xlink" x="0px" y="0px"
	 viewBox="0 0 512.001 512.001" style="enable-background:new 0 0 512.001 512.001;" xml:space="preserve">
<path style="fill:#DDE2FF;" d="M415.921,241.931l3.983,19.406c15.144,73.779-7.794,150.231-61.05,203.487l0,0l-82.913-82.913
	L130.138,236.109l-82.913-82.913l0,0c53.257-53.257,129.708-76.195,203.487-61.05l19.406,3.983L415.921,241.931z"/>
<path style="fill:#FE7A77;" d="M202.992,308.962l72.949,72.949L413.503,244.35c61.604-61.604,93.619-146.8,87.831-233.729l0,0
	l0.095,0.095l0,0C414.501,4.928,329.304,36.943,267.7,98.547L130.137,236.109l72.949,72.949L202.992,308.962z"/>
<rect x="103.398" y="303.048" transform="matrix(-0.7071 -0.7071 0.7071 -0.7071 93.1572 685.6749)" style="fill:#AFBAFF;" width="170.376" height="40.992"/>
<circle style="fill:#FFFFFF;" cx="320.349" cy="190.904" r="58.489"/>
<path style="fill:#FFE4BA;" d="M174.098,425.749c24.217-24.217,24.217-63.491,0-87.708c-24.217-24.217-63.491-24.217-87.708,0
	c-0.426,0.426-0.843,0.858-1.254,1.294c-41.692,43.36-33.778,119.822-32.966,120.634c0.54,0.54,77.262,8.721,120.628-32.96
	C173.236,426.596,173.67,426.177,174.098,425.749z"/>
<path style="fill:#FFD189;" d="M174.098,381.896c12.109-12.109,12.109-31.746,0-43.855c-12.109-12.109-31.746-12.109-43.855,0
	c-0.213,0.213-0.422,0.429-0.627,0.647c-20.846,21.68-16.889,59.911-16.483,60.318c0.27,0.27,38.632,4.36,60.315-16.48
	C173.667,382.318,173.884,382.11,174.098,381.896z"/>
<path d="M251.865,190.901c0,18.295,7.124,35.492,20.059,48.429c12.936,12.936,30.134,20.059,48.428,20.059
	c18.294,0,35.492-7.124,48.428-20.059c12.936-12.936,20.059-30.134,20.059-48.429c0-18.294-7.124-35.491-20.059-48.428
	c-12.936-12.936-30.134-20.059-48.428-20.059c-18.294,0-35.492,7.125-48.428,20.059
	C258.989,155.409,251.865,172.607,251.865,190.901z M320.352,142.41c12.953,0,25.129,5.044,34.288,14.203
	c9.159,9.158,14.203,21.336,14.203,34.287c0,12.953-5.044,25.13-14.203,34.289c-9.158,9.159-21.336,14.202-34.288,14.202
	s-25.129-5.043-34.288-14.202c-9.159-9.158-14.203-21.336-14.203-34.289c0-12.952,5.044-25.129,14.203-34.288
	C295.222,147.453,307.4,142.41,320.352,142.41z"/>
<path d="M426.766,245.038c59.251-62.722,89.98-147.288,84.638-233.627c0.196-2.823-0.812-5.663-2.886-7.748l-0.095-0.096
	c-2.09-2.1-4.948-3.126-7.788-2.922c-86.34-5.35-170.902,25.386-233.624,84.638l-14.288-2.933
	C175.42,66.481,95.956,90.325,40.155,146.125c-1.875,1.876-2.928,4.418-2.928,7.07s1.054,5.194,2.928,7.07l88.551,88.551
	l-21.916,21.917c-3.904,3.904-3.904,10.235,0,14.14l25.046,25.046c-0.531-0.011-1.059-0.039-1.592-0.039
	c-19.238,0-37.323,7.491-50.92,21.088c-0.492,0.491-0.973,0.99-1.396,1.438c-23.542,24.483-32.099,58.074-35.133,81.941
	c-1.731,13.619-1.867,25.347-1.675,32.786c0.42,16.348,1.761,17.687,3.983,19.91c2.311,2.31,3.47,3.468,19.803,3.861
	c1.508,0.036,3.189,0.06,5.025,0.06c7.264,0,16.933-0.364,27.739-1.722c23.936-3.005,57.604-11.521,81.996-34.967
	c0.505-0.478,1.007-0.961,1.502-1.456c14.451-14.452,21.445-33.568,21.021-52.547l25.078,25.078c1.875,1.875,4.418,2.928,7.07,2.928
	c2.652,0,5.195-1.054,7.07-2.928l21.916-21.916l88.462,88.461c1.875,1.875,4.417,2.928,7.07,2.928c2.652,0,5.195-1.054,7.07-2.928
	c55.8-55.801,79.641-135.265,63.775-212.568L426.766,245.038z M491.817,20.233c1.372,38.226-4.793,75.944-17.726,111.162
	l-63.264-63.264c-3.904-3.903-10.235-3.903-14.14,0c-3.904,3.904-3.904,10.235,0,14.14l69.188,69.188
	c-14.343,31.6-34.354,60.733-59.441,85.82L275.941,367.772l-5.538-5.538c-0.004-0.004-126.125-126.126-126.125-126.126l27.49-27.49
	l47.267,47.267c1.953,1.952,4.511,2.928,7.07,2.928c2.559,0,5.118-0.977,7.07-2.928c3.904-3.904,3.904-10.235,0-14.14
	l-47.267-47.267l88.863-88.862C332.222,48.165,410.887,17.327,491.817,20.233z M248.703,101.939l1.217,0.25l-119.781,119.78
	l-68.611-68.61C112.061,107.287,181.279,88.098,248.703,101.939z M173.181,359.968c0,5.61-2.184,10.885-6.147,14.851
	c-0.151,0.15-0.305,0.298-0.515,0.497c-12.159,11.687-32.371,14.137-43.968,14.228c0.093-11.315,2.452-31.636,14.326-43.986
	c0.14-0.148,0.282-0.296,0.435-0.448c3.968-3.968,9.244-6.154,14.857-6.154c5.609,0,10.881,2.183,14.848,6.145
	c0.003,0.003,0.007,0.006,0.01,0.009c0.004,0.004,0.007,0.008,0.011,0.011C171,349.09,173.181,354.36,173.181,359.968z
	 M167.028,418.68c-0.001,0.002-0.002,0.003-0.004,0.004c-0.36,0.361-0.726,0.712-1.154,1.117
	c-19.82,19.05-47.848,26.408-67.87,29.225c-15.409,2.169-28.859,2.135-36.739,1.755c-0.406-7.827-0.462-21.382,1.793-37.038
	c2.862-19.865,10.268-47.698,29.339-67.533c0.348-0.368,0.7-0.734,1.065-1.099c8.314-8.314,18.953-13.453,30.45-14.84
	c-0.242,0.231-0.49,0.455-0.728,0.693c-0.282,0.281-0.556,0.565-0.773,0.794c-10.067,10.471-16.611,25.618-18.922,43.806
	c-0.905,7.122-0.976,13.258-0.876,17.152c0.2,7.755,0.702,10.608,3.465,13.372c2.876,2.866,5.934,3.204,13.304,3.382
	c0.789,0.019,1.668,0.031,2.628,0.031c3.797,0,8.851-0.19,14.497-0.899c18.24-2.291,33.41-8.814,43.815-18.815
	c0.282-0.268,0.562-0.537,0.839-0.813c0.003-0.003,0.005-0.006,0.008-0.008c0.23-0.23,0.447-0.469,0.67-0.704
	C180.478,399.388,175.551,410.157,167.028,418.68z M234.337,384.14l-53.164-53.164c-0.002-0.002-0.003-0.003-0.005-0.005
	s-0.003-0.003-0.005-0.005l-53.164-53.164l14.846-14.847l52.992,52.992c0.028,0.028,0.056,0.057,0.084,0.085l53.261,53.261
	L234.337,384.14z M358.691,450.522l-68.611-68.61l119.78-119.78l0.25,1.216C423.95,330.77,404.762,399.988,358.691,450.522z"/>
<path d="M67.924,298.322c-3.904-3.902-10.235-3.903-14.139,0L2.929,349.178c-3.904,3.904-3.905,10.235,0,14.14
	c1.953,1.952,4.511,2.928,7.07,2.928s5.118-0.977,7.07-2.928l50.856-50.855C71.829,308.557,71.829,302.227,67.924,298.322z"/>
<path d="M181.703,462.01l-32.874,32.874c-3.904,3.904-3.904,10.235,0,14.14c1.953,1.952,4.511,2.928,7.07,2.928
	s5.118-0.977,7.07-2.928l32.874-32.874c3.904-3.904,3.904-10.235,0-14.14C191.938,458.106,185.607,458.106,181.703,462.01z"/>
<path d="M216.739,431.116c-2.63,0-5.209,1.061-7.069,2.93c-1.86,1.859-2.929,4.429-2.929,7.068c0,2.63,1.07,5.199,2.929,7.069
	c1.86,1.86,4.439,2.919,7.069,2.919s5.209-1.06,7.069-2.919c1.87-1.87,2.929-4.438,2.929-7.069c0-2.64-1.06-5.209-2.929-7.068
	C221.948,432.177,219.379,431.116,216.739,431.116z"/>
<path d="M253.052,265.768c-2.63,0-5.209,1.061-7.069,2.919c-1.86,1.87-2.929,4.449-2.929,7.079s1.07,5.209,2.929,7.069
	c1.86,1.86,4.439,2.929,7.069,2.929c2.63,0,5.209-1.069,7.069-2.929c1.86-1.861,2.929-4.439,2.929-7.069s-1.07-5.209-2.929-7.079
	C258.261,266.828,255.682,265.768,253.052,265.768z"/>
</svg>
