<?xml version="1.0" encoding="iso-8859-1"?>
<!-- Generator: Adobe Illustrator 19.0.0, SVG Export Plug-In . SVG Version: 6.00 Build 0)  -->
<svg version="1.1" id="Capa_1" xmlns="http://www.w3.org/2000/svg" xmlns:xlink="http://www.w3.org/1999/xlink" x="0px" y="0px"
	 viewBox="0 0 512 512" style="enable-background:new 0 0 512 512;" xml:space="preserve">
<circle style="fill:#FFCAC9;" cx="256" cy="256" r="52"/>
<g>
	
		<rect x="19.656" y="445.692" transform="matrix(-0.7071 0.7071 -0.7071 -0.7071 405.0078 770.266)" style="fill:#ECEEFF;" width="46.642" height="46.642"/>
	
		<rect x="445.696" y="19.666" transform="matrix(-0.7071 0.7071 -0.7071 -0.7071 831.0579 -258.2612)" style="fill:#ECEEFF;" width="46.642" height="46.642"/>
</g>
<path d="M390.582,149.324c-21.37-25.967-50.737-43.052-82.691-48.105c-27.086-4.284-54.4,0.606-76.906,13.771
	c-24.593,14.385-42.746,37.873-52.496,67.925c-12.094,37.273-8.049,72.528,11.389,99.269c15.336,21.099,39.135,34.556,62.784,35.724
	c0.1,0.005,0.2,0.011,0.3,0.015c1.014,0.046,2.027,0.077,3.04,0.077c31.079,0,56.884-22.988,61.32-52.853
	c4.814,17.241,3.949,37.024-2.78,57.767c-14.116,43.507-48.705,69.451-90.583,69.447c-5.441,0-11.014-0.439-16.672-1.334
	C156.398,382.979,105.052,336.869,105.052,252c0-127.066,77.462-190.916,123.636-217.666c4.779-2.769,6.408-8.887,3.64-13.666
	c-2.767-4.779-8.885-6.408-13.665-3.64C168.763,45.937,85.052,114.904,85.052,252c0,43.455,12.593,81.726,36.418,110.676
	c21.37,25.967,50.737,43.052,82.691,48.105c6.399,1.012,12.809,1.512,19.167,1.512c20.555,0,40.551-5.229,57.739-15.283
	c24.593-14.385,42.746-37.873,52.496-67.925c12.094-37.273,8.049-72.528-11.389-99.269c-15.371-21.146-39.242-34.617-62.943-35.733
	c-0.03-0.002-0.06-0.003-0.09-0.005c-1.031-0.047-2.061-0.08-3.09-0.08c-0.006,0-0.011,0.001-0.017,0.001
	c-0.011,0-0.023-0.001-0.034-0.001c-31.035,0-56.814,22.923-61.304,52.727c-4.775-17.211-3.897-36.948,2.816-57.641
	c15.95-49.16,58.051-75.899,107.255-68.113C355.653,129.021,407,175.131,407,260c0,125.087-75.524,188.925-120.543,215.845
	c-4.74,2.834-6.285,8.975-3.451,13.715c1.874,3.132,5.189,4.869,8.593,4.869c1.746,0,3.515-0.458,5.122-1.419
	C345.376,463.917,427,394.957,427,260C427,216.545,414.407,178.274,390.582,149.324z M256,214c23.159,0,42,18.841,42,42
	s-18.841,42-42,42s-42-18.841-42-42S232.841,214,256,214z"/>
<path d="M252.814,492.474l-0.214,0.077c-5.21,1.804-7.968,7.482-6.176,12.697c1.426,4.146,5.309,6.75,9.463,6.75
	c1.076,0,2.171-0.175,3.245-0.543l0.467-0.165c5.195-1.874,7.888-7.604,6.015-12.8C263.74,493.294,258.009,490.601,252.814,492.474z
	"/>
<path d="M255.673,20.184c1.136,0,2.291-0.195,3.42-0.606l0.356-0.127c5.21-1.803,7.97-7.48,6.178-12.696
	c-1.793-5.22-7.488-7.996-12.706-6.208c0,0-0.229,0.078-0.67,0.238c-5.189,1.89-7.865,7.628-5.976,12.818
	C247.753,17.663,251.588,20.184,255.673,20.184z"/>
<path d="M50.053,428.967c-1.876-1.875-4.419-2.929-7.071-2.929s-5.195,1.054-7.071,2.929L2.929,461.948
	C1.054,463.823,0,466.367,0,469.019s1.054,5.196,2.929,7.071l32.981,32.981c1.876,1.875,4.419,2.929,7.071,2.929
	s5.195-1.054,7.071-2.929l32.98-32.981c3.905-3.905,3.905-10.237,0-14.142L50.053,428.967z M42.981,487.858l-18.839-18.839
	l18.839-18.839l18.839,18.839L42.981,487.858z"/>
<path d="M509.071,35.91L476.09,2.929C474.214,1.054,471.671,0,469.019,0s-5.195,1.054-7.071,2.929l-32.98,32.981
	c-3.905,3.905-3.905,10.237,0,14.142l32.98,32.981c1.876,1.875,4.419,2.929,7.071,2.929s5.195-1.054,7.071-2.929l32.981-32.981
	c1.875-1.875,2.929-4.419,2.929-7.071S510.946,37.785,509.071,35.91z M469.019,61.82L450.18,42.981l18.839-18.839l18.839,18.839
	L469.019,61.82z"/>
<path d="M472,438h-14v-14.387c0-5.523-4.478-10-10-10s-10,4.477-10,10V438h-14c-5.522,0-10,4.477-10,10s4.478,10,10,10h14v14.387
	c0,5.523,4.478,10,10,10s10-4.477,10-10V458h14c5.522,0,10-4.477,10-10S477.522,438,472,438z"/>
<path d="M40,74h14v14.387c0,5.523,4.478,10,10,10s10-4.477,10-10V74h14c5.522,0,10-4.477,10-10s-4.478-10-10-10H74V39.613
	c0-5.523-4.478-10-10-10s-10,4.477-10,10V54H40c-5.522,0-10,4.477-10,10S34.478,74,40,74z"/>
<path d="M37.52,227.48c2.63,0,5.21-1.07,7.08-2.93c1.86-1.87,2.92-4.44,2.92-7.07c0-2.64-1.06-5.21-2.92-7.07
	c-1.87-1.87-4.439-2.93-7.08-2.93c-2.63,0-5.21,1.06-7.069,2.93c-1.86,1.86-2.931,4.43-2.931,7.07c0,2.63,1.07,5.21,2.931,7.07
	C32.319,226.41,34.89,227.48,37.52,227.48z"/>
<path d="M461.95,291.76c-1.86,1.87-2.931,4.44-2.931,7.07c0,2.64,1.07,5.21,2.931,7.07c1.859,1.87,4.439,2.93,7.069,2.93
	s5.21-1.06,7.07-2.93c1.86-1.86,2.93-4.43,2.93-7.07c0-2.63-1.069-5.21-2.93-7.07s-4.44-2.93-7.07-2.93
	C466.38,288.83,463.81,289.9,461.95,291.76z"/>
<path d="M79.694,387.22c-3.176-4.519-9.415-5.606-13.932-2.432c-4.519,3.176-5.607,9.413-2.432,13.932
	c2.034,2.894,4.191,5.757,6.411,8.51c1.976,2.45,4.87,3.723,7.79,3.723c2.204,0,4.423-0.725,6.271-2.216
	c4.299-3.467,4.974-9.763,1.507-14.062C83.366,392.264,81.477,389.755,79.694,387.22z"/>
<path d="M43.671,361.071c1.484,4.051,5.313,6.563,9.391,6.563c1.143,0,2.305-0.197,3.439-0.613c5.186-1.9,7.85-7.645,5.949-12.83
	c-1.064-2.905-2.055-5.896-2.942-8.889c-1.569-5.295-7.138-8.314-12.43-6.745c-5.295,1.57-8.314,7.135-6.744,12.43
	C41.34,354.38,42.463,357.773,43.671,361.071z"/>
<path d="M43.78,318.808c5.516-0.295,9.747-5.005,9.451-10.521c-0.166-3.103-0.25-6.284-0.25-9.454c0-5.523-4.478-10-10-10
	s-10,4.477-10,10c0,3.525,0.094,7.065,0.279,10.523c0.285,5.333,4.698,9.466,9.977,9.466
	C43.417,318.822,43.599,318.817,43.78,318.808z"/>
<path d="M292.885,437.463c2.132,0,4.281-0.679,6.1-2.082c2.781-2.145,5.543-4.418,8.208-6.758c4.15-3.644,4.561-9.962,0.917-14.112
	c-3.645-4.15-9.963-4.562-14.112-0.917c-2.348,2.061-4.778,4.063-7.226,5.95c-4.374,3.373-5.186,9.652-1.813,14.025
	C286.929,436.124,289.891,437.463,292.885,437.463z"/>
<path d="M327.152,401.347c3.146,0,6.241-1.48,8.188-4.248c1.993-2.834,3.953-5.788,5.824-8.778
	c2.929-4.682,1.509-10.852-3.173-13.781c-4.684-2.932-10.854-1.509-13.782,3.173c-1.682,2.688-3.44,5.339-5.229,7.881
	c-3.177,4.518-2.091,10.755,2.427,13.933C323.158,400.756,325.165,401.347,327.152,401.347z"/>
<path d="M120.04,425.67c-2.622-1.671-5.224-3.448-7.732-5.281c-4.457-3.26-10.714-2.287-13.974,2.171
	c-3.26,4.458-2.288,10.715,2.171,13.975c2.851,2.084,5.808,4.104,8.787,6.003c1.666,1.061,3.525,1.568,5.364,1.568
	c3.304,0,6.537-1.636,8.443-4.628C126.067,434.819,124.697,428.638,120.04,425.67z"/>
<path d="M254.556,438.234c-2.856,1.185-5.794,2.289-8.732,3.283c-5.231,1.77-8.037,7.446-6.268,12.677
	c1.41,4.169,5.302,6.798,9.472,6.798c1.063,0,2.144-0.171,3.206-0.53c3.357-1.136,6.716-2.398,9.982-3.752
	c5.102-2.115,7.522-7.966,5.407-13.067C265.508,438.539,259.654,436.119,254.556,438.234z"/>
<path d="M162.844,444.253c-3.018-0.781-6.045-1.666-8.997-2.629c-5.25-1.714-10.896,1.152-12.609,6.403
	c-1.715,5.25,1.152,10.896,6.402,12.61c3.346,1.092,6.775,2.095,10.194,2.979c0.84,0.217,1.683,0.321,2.512,0.321
	c4.449,0,8.509-2.991,9.675-7.498C171.403,451.092,168.19,445.637,162.844,444.253z"/>
<path d="M209.263,448.707c-3.058,0.195-6.17,0.293-9.249,0.293h-0.106c-5.522,0-10,4.477-10,10s4.478,10,10,10h0.106
	c3.502,0,7.042-0.112,10.521-0.334c5.512-0.352,9.695-5.104,9.344-10.616C219.527,452.538,214.751,448.348,209.263,448.707z"/>
<path d="M468.329,150.929c-1.9-5.186-7.646-7.851-12.83-5.949c-5.186,1.9-7.85,7.645-5.949,12.83
	c1.064,2.905,2.055,5.896,2.942,8.889c1.288,4.347,5.27,7.16,9.583,7.16c0.941,0,1.898-0.134,2.847-0.415
	c5.295-1.57,8.314-7.135,6.744-12.43C470.66,157.62,469.537,154.227,468.329,150.929z"/>
<path d="M442.258,104.77c-3.467-4.299-9.765-4.974-14.062-1.507c-4.299,3.467-4.974,9.763-1.507,14.062
	c1.944,2.412,3.834,4.92,5.616,7.456c1.947,2.77,5.044,4.251,8.19,4.251c1.986,0,3.993-0.591,5.741-1.819
	c4.519-3.176,5.607-9.413,2.432-13.932C446.635,110.386,444.478,107.523,442.258,104.77z"/>
<path d="M468.22,193.192c-5.516,0.295-9.747,5.005-9.451,10.521c0.166,3.103,0.25,6.284,0.25,9.454c0,5.523,4.478,10,10,10
	s10-4.477,10-10c0-3.525-0.094-7.065-0.279-10.523C478.444,197.129,473.718,192.886,468.22,193.192z"/>
<path d="M391.96,86.33c2.622,1.671,5.224,3.448,7.732,5.281c1.779,1.301,3.846,1.928,5.894,1.928c3.082,0,6.122-1.42,8.08-4.099
	c3.26-4.458,2.288-10.715-2.171-13.975c-2.851-2.084-5.808-4.104-8.787-6.003c-4.659-2.968-10.84-1.598-13.808,3.06
	C385.933,77.181,387.303,83.362,391.96,86.33z"/>
<path d="M176.659,114.901c-1.993,2.834-3.953,5.788-5.824,8.778c-2.929,4.682-1.509,10.852,3.173,13.781
	c1.649,1.032,3.483,1.524,5.295,1.524c3.332,0,6.59-1.665,8.487-4.697c1.682-2.688,3.44-5.339,5.229-7.881
	c3.177-4.518,2.091-10.755-2.427-13.933C186.071,109.296,179.837,110.384,176.659,114.901z"/>
<path d="M253.618,74.531c1.276,0,2.574-0.246,3.826-0.765c2.856-1.185,5.794-2.289,8.732-3.283c5.231-1.77,8.037-7.446,6.268-12.677
	S265,49.77,259.767,51.538c-3.357,1.136-6.716,2.398-9.982,3.752c-5.102,2.115-7.522,7.966-5.407,13.067
	C245.973,72.208,249.695,74.531,253.618,74.531z"/>
<path d="M349.156,67.747c3.018,0.781,6.045,1.666,8.997,2.629c1.031,0.336,2.076,0.497,3.105,0.497c4.21,0,8.127-2.68,9.504-6.899
	c1.715-5.25-1.152-10.896-6.402-12.61c-3.346-1.092-6.775-2.095-10.194-2.979c-5.346-1.383-10.803,1.83-12.187,7.177
	C340.597,60.908,343.81,66.363,349.156,67.747z"/>
<path d="M213.016,76.619c-2.781,2.145-5.543,4.418-8.208,6.758c-4.15,3.644-4.561,9.962-0.917,14.112
	c1.977,2.251,4.74,3.402,7.519,3.402c2.343,0,4.695-0.818,6.594-2.485c2.348-2.061,4.778-4.063,7.226-5.95
	c4.374-3.373,5.186-9.652,1.813-14.025C223.669,74.058,217.387,73.246,213.016,76.619z"/>
<path d="M302.092,63.314c0.214,0,0.43-0.007,0.646-0.021c3.058-0.195,6.17-0.293,9.249-0.293h0.106c5.522,0,10-4.477,10-10
	s-4.478-10-10-10h-0.106c-3.502,0-7.042,0.112-10.521,0.334c-5.512,0.352-9.695,5.104-9.344,10.616
	C292.459,59.246,296.859,63.314,302.092,63.314z"/>
<g>
</g>
<g>
</g>
<g>
</g>
<g>
</g>
<g>
</g>
<g>
</g>
<g>
</g>
<g>
</g>
<g>
</g>
<g>
</g>
<g>
</g>
<g>
</g>
<g>
</g>
<g>
</g>
<g>
</g>
</svg>
