<?xml version="1.0" encoding="iso-8859-1"?>
<!-- Generator: Adobe Illustrator 19.0.0, SVG Export Plug-In . SVG Version: 6.00 Build 0)  -->
<svg version="1.1" id="Capa_1" xmlns="http://www.w3.org/2000/svg" xmlns:xlink="http://www.w3.org/1999/xlink" x="0px" y="0px"
	 viewBox="0 0 512 512" style="enable-background:new 0 0 512 512;" xml:space="preserve">
<polygon style="fill:#9AA9FF;" points="256.127,224.869 256.127,255.87 346.5,255.87 320.127,195.996 "/>
<path style="fill:#DDE2FF;" d="M145.865,188.004c49.153,49.153,128.847,49.153,178,0s49.153-128.847,0-178L145.865,188.004z"/>
<path style="fill:#C8D0FF;" d="M448,453.996h34c11.046,0,20-8.954,20-20v-158c0-11.046-8.954-20-20-20H84.667L10.333,330.33
	L10,329.996v104c0,11.046,8.954,20,20,20h34H448z"/>
<polygon style="fill:#FFFFFF;" points="112,357.996 112,255.996 84.667,255.996 10.333,330.33 10,329.996 10,357.996 "/>
<g>
	<circle style="fill:#9AA9FF;" cx="256" cy="454" r="48"/>
	<circle style="fill:#9AA9FF;" cx="400" cy="454" r="48"/>
	<circle style="fill:#9AA9FF;" cx="112" cy="454" r="48"/>
</g>
<g>
	<rect x="212" y="300" style="fill:#FFFFFF;" width="88" height="56"/>
	<rect x="356" y="300" style="fill:#FFFFFF;" width="88" height="56"/>
</g>
<path d="M482,245.996H353.078l-22.344-50.725c0.067-0.066,0.135-0.13,0.201-0.196c25.661-25.662,39.793-59.78,39.793-96.071
	s-14.132-70.41-39.793-96.071c-3.905-3.905-10.237-3.905-14.143,0l-59.634,59.634h-48.731c-5.523,0-10,4.477-10,10v48.731
	l-59.634,59.634c-3.905,3.905-3.905,10.237,0,14.143c25.662,25.661,59.78,39.793,96.071,39.793c3.781,0,7.536-0.162,11.262-0.466
	v11.594H84.667c-2.652,0-5.196,1.054-7.071,2.929L5.409,321.113C2.107,322.817,0,326.235,0,329.996v104c0,16.542,13.458,30,30,30
	h24.881c4.755,27.23,28.549,48,57.119,48s52.365-20.77,57.119-48h29.761c4.755,27.23,28.549,48,57.119,48s52.365-20.77,57.119-48
	h29.761c4.755,27.23,28.549,48,57.119,48s52.365-20.77,57.119-48H482c16.542,0,30-13.458,30-30v-158
	C512,259.454,498.542,245.996,482,245.996z M218.428,82.567h18.731l-18.731,18.731V82.567z M160.309,187.702L293.225,54.785
	c13.295,17.609,18.126,40.687,12.602,62.376c-1.363,5.352,1.87,10.796,7.222,12.159c0.829,0.211,1.658,0.312,2.476,0.312
	c4.463,0,8.531-3.011,9.683-7.534c7.26-28.502,0.462-58.89-17.738-81.557l16.092-16.092c38.28,45.475,36.024,113.691-6.769,156.484
	S205.784,225.981,160.309,187.702z M314.861,208.848l16.307,37.021h-65.041v-14.604
	C283.693,227.148,300.214,219.563,314.861,208.848z M88.809,265.996H102v82H20v-13.191L88.809,265.996z M112,491.996
	c-20.953,0-38-17.047-38-38s17.047-38,38-38s38,17.047,38,38S132.953,491.996,112,491.996z M256,491.996c-20.953,0-38-17.047-38-38
	s17.047-38,38-38s38,17.047,38,38S276.953,491.996,256,491.996z M400,491.996c-20.953,0-38-17.047-38-38s17.047-38,38-38
	s38,17.047,38,38S420.953,491.996,400,491.996z M492,433.996c0,5.514-4.486,10-10,10h-24.881c-4.755-27.23-28.549-48-57.119-48
	s-52.365,20.77-57.119,48H313.12c-4.755-27.23-28.549-48-57.119-48s-52.365,20.77-57.119,48h-29.761
	c-4.755-27.23-28.549-48-57.119-48s-52.365,20.77-57.119,48H30c-5.514,0-10-4.486-10-10v-66h92c5.523,0,10-4.477,10-10v-92h20
	v38.667c0,5.523,4.477,10,10,10s10-4.477,10-10v-38.667h320c5.514,0,10,4.486,10,10V433.996z"/>
<path d="M400,443.996c-2.63,0-5.21,1.07-7.07,2.93c-1.86,1.86-2.93,4.44-2.93,7.07s1.07,5.21,2.93,7.07
	c1.86,1.86,4.44,2.93,7.07,2.93s5.21-1.07,7.07-2.93s2.93-4.44,2.93-7.07s-1.07-5.21-2.93-7.07
	C405.21,445.066,402.63,443.996,400,443.996z"/>
<path d="M256,443.996c-2.63,0-5.21,1.07-7.07,2.93s-2.93,4.44-2.93,7.07s1.07,5.21,2.93,7.07c1.86,1.86,4.44,2.93,7.07,2.93
	s5.21-1.07,7.07-2.93s2.93-4.44,2.93-7.07s-1.07-5.21-2.93-7.07C261.21,445.066,258.63,443.996,256,443.996z"/>
<path d="M112,443.996c-2.63,0-5.21,1.07-7.07,2.93s-2.93,4.44-2.93,7.07s1.07,5.21,2.93,7.07c1.86,1.86,4.44,2.93,7.07,2.93
	s5.21-1.07,7.07-2.93s2.93-4.44,2.93-7.07s-1.07-5.21-2.93-7.07C117.21,445.066,114.63,443.996,112,443.996z"/>
<path d="M300,289.996h-88c-5.523,0-10,4.477-10,10v56c0,5.523,4.477,10,10,10h88c5.523,0,10-4.477,10-10v-56
	C310,294.474,305.523,289.996,300,289.996z M290,345.996h-68v-36h68V345.996z"/>
<path d="M444,289.996h-88c-5.523,0-10,4.477-10,10v56c0,5.523,4.477,10,10,10h88c5.523,0,10-4.477,10-10v-56
	C454,294.474,449.523,289.996,444,289.996z M434,345.996h-68v-36h68V345.996z"/>
<path d="M199.94,33.663c-16.772,0-30.417,13.645-30.417,30.417c0,5.523,4.477,10,10,10s10-4.477,10-10
	c0-5.744,4.673-10.417,10.417-10.417c5.523,0,10-4.477,10-10C209.94,38.14,205.463,33.663,199.94,33.663z"/>
<path d="M145.865,74.08c5.523,0,10-4.477,10-10c0-24.304,19.772-44.076,44.076-44.076c5.523,0,10-4.477,10-10s-4.477-10-10-10
	c-35.332,0-64.076,28.745-64.076,64.076C135.865,69.603,140.342,74.08,145.865,74.08z"/>
<path d="M286.844,150.596l-0.194,0.194c-3.905,3.905-3.905,10.237,0,14.143c1.953,1.953,4.512,2.929,7.071,2.929
	s5.119-0.976,7.071-2.929l0.241-0.242c3.892-3.918,3.871-10.25-0.047-14.142S290.736,146.677,286.844,150.596z"/>
<path d="M152,333.326c-2.63,0-5.21,1.07-7.07,2.93s-2.93,4.44-2.93,7.07c0,2.64,1.07,5.21,2.93,7.07c1.86,1.87,4.44,2.93,7.07,2.93
	s5.21-1.06,7.07-2.93c1.86-1.86,2.93-4.43,2.93-7.07c0-2.63-1.07-5.21-2.93-7.07S154.63,333.326,152,333.326z"/>
<g>
</g>
<g>
</g>
<g>
</g>
<g>
</g>
<g>
</g>
<g>
</g>
<g>
</g>
<g>
</g>
<g>
</g>
<g>
</g>
<g>
</g>
<g>
</g>
<g>
</g>
<g>
</g>
<g>
</g>
</svg>
